<svg width="38" height="42" viewBox="0 0 38 42" fill="none" xmlns="http://www.w3.org/2000/svg">
<path d="M30.8558 13.492C30.8558 13.3447 30.9997 13.2955 30.9997 13.1478C30.9997 13.0743 30.9517 13.0005 30.8558 13.0005H30.5384C30.4613 13.0005 30.4038 13.0495 30.3749 13.1357L29.8077 14.7336L29.2694 13.1357C29.2404 13.0621 29.1826 13.0005 29.1056 13.0005H28.7885C28.6923 13.0005 28.6442 13.0743 28.6442 13.1478C28.6442 13.2955 28.7885 13.3447 28.7885 13.492V14.5863C28.7885 15.2009 28.5 15.1765 28.5 15.4225C28.5 15.5204 28.6057 15.5821 28.7885 15.5821H28.9327C29.1154 15.5821 29.2211 15.5204 29.2211 15.4225C29.2211 15.1765 28.9327 15.2009 28.9327 14.5863V13.6029L29.4616 15.1271C29.5001 15.2009 29.5576 15.25 29.625 15.2622H29.6537C29.721 15.2622 29.7885 15.2135 29.8172 15.1271L30.3461 13.6151V15.1027C30.3461 15.25 30.2019 15.2995 30.2019 15.4469C30.2019 15.5204 30.2594 15.5821 30.3461 15.5821H30.8558C30.9517 15.5821 30.9997 15.5204 30.9997 15.4469C30.9997 15.2995 30.8558 15.25 30.8558 15.1027V13.492Z" fill="#D8D0C3"/>
<path d="M26 13.0981V13.1968C26 13.4302 26.058 13.6024 26.1628 13.6024C26.3838 13.6024 26.3605 13.1968 26.942 13.1968V15.1022C26.942 15.2495 26.7673 15.299 26.7673 15.4464C26.7673 15.5199 26.8371 15.5816 26.942 15.5816H27.5583C27.6741 15.5816 27.7324 15.5199 27.7324 15.4464C27.7324 15.299 27.5583 15.2495 27.5583 15.1022V13.1968C28.1392 13.1968 28.1162 13.6024 28.3371 13.6024C28.4417 13.6024 28.4997 13.4302 28.4997 13.1968V13.0981C28.4997 13.049 28.4649 13 28.4181 13H26.093C26.0347 13 26 13.049 26 13.0981Z" fill="#D8D0C3"/>
<path d="M27.1 23.2026C26.9602 23.0449 26.8206 22.8875 26.6852 22.7298C25.6646 21.5378 25.2381 20.4782 25.419 19.576L25.4673 19.293L25.1286 18.864L15.2371 18.8271L16.0249 13.8638C16.0347 13.8018 16.044 13.7352 16.0536 13.6719C16.2769 13.9106 16.5534 14.0884 16.8824 14.1913C17.124 14.2667 17.3803 14.2997 17.6439 14.2997C18.9957 14.2997 20.53 13.4306 21.1235 12.9409C22.7308 11.615 23.6738 9.62933 24.3823 7.86631L24.515 7.50227L24.0311 6.94693L19.0532 8.48141C18.1149 8.77068 16.4723 9.44748 15.7691 10.7339C15.7384 10.6637 15.71 10.5905 15.6794 10.5216C15.6299 10.41 15.5854 10.3022 15.5405 10.1945L15.8402 7.29104C15.9042 7.16502 15.9707 7.03965 16.0412 6.91428C16.2339 6.96685 16.4231 7.00276 16.6032 7.00276C17.1546 7.00276 17.638 6.75756 18.0085 6.27796C18.9472 5.06409 18.8964 2.5126 18.1978 1.35293L17.9631 1L17.5799 1.10545C17.1735 1.21809 14.3742 3.12737 14.2821 4.91783C14.2589 5.37457 14.3981 5.9616 15.0475 6.4399C14.4541 7.51763 14.0238 8.66065 14.2914 9.88464C14.382 10.295 14.5415 10.6568 14.6968 11.0067C14.8344 11.3173 14.964 11.6107 15.0284 11.9049C15.1484 12.4561 15.0497 13.0754 14.9547 13.6745L14.7593 14.9064C13.9917 14.1083 12.6237 13.6895 11.6412 13.395C11.4423 13.3353 11.2657 13.2827 11.1253 13.2347C10.4959 13.0192 10.0258 13.1028 9.72739 13.4812C9.53657 13.7238 9.30059 14.2566 9.8678 15.0989C11.2936 17.2172 12.5452 18.2903 13.5878 18.2903C13.6001 18.2903 13.6128 18.2903 13.6251 18.29C13.8058 18.2854 14.0232 18.245 14.2477 18.1297L14.1376 18.8232L12.2096 18.8157C11.5134 18.8134 10.8167 18.8062 10.1199 18.7993C8.76462 18.786 7.40845 18.7726 6.05538 18.7905C5.3561 18.7999 4.64508 18.8969 4.30952 19.9479C4.07045 20.6956 3.97427 21.6028 4.00582 22.8026C4.03396 23.8755 4.21458 24.931 4.54241 25.9402L4.58477 26.0711C4.93673 27.1672 5.36291 28.3595 6.00125 28.8091C6.17135 29.0412 6.35104 29.2687 6.53073 29.4956C7.05402 30.1561 7.54794 30.7797 7.78082 31.5137C8.06967 32.4245 7.93391 33.4944 7.81422 34.439L6.95227 41.2449C6.92877 41.4375 6.98475 41.6311 7.10753 41.7761C7.22753 41.9187 7.39948 42 7.5801 42H7.58876L20.2526 41.8126C20.4524 41.8096 20.6349 41.7108 20.753 41.5413C20.8699 41.3734 20.9064 41.1541 20.8511 40.955C20.5381 39.8269 21.0289 38.4619 21.9688 37.8474C22.4849 37.5096 23.1109 37.3603 23.7734 37.2014L23.9896 37.1495C24.7612 36.9617 25.6417 36.708 26.3301 36.0704C27.0393 35.4138 27.5032 34.2143 27.0179 33.1928C26.9472 33.0438 26.8559 32.8999 26.7635 32.7572C26.6558 32.5907 26.5336 32.402 26.5457 32.3099C26.5562 32.2303 26.6824 32.0928 26.7934 31.9714C26.9076 31.847 27.0205 31.7203 27.1117 31.5825C27.6217 30.8123 27.443 29.877 27.2991 29.1261L27.2505 28.8665C27.1476 28.2961 27.177 27.8936 27.3393 27.6357C27.5437 27.3121 27.9826 27.1629 28.4267 27.0493C28.6302 26.997 28.805 26.8564 28.9064 26.6633C29.0076 26.4711 29.0277 26.2412 28.9621 26.0329C28.6055 24.902 27.84 24.0381 27.1 23.2026Z" fill="#D8D0C3"/>
</svg>
